<svg xmlns="http://www.w3.org/2000/svg" viewBox="0 0 335.73 354.3"><defs><style>.cls-1{isolation:isolate;}.cls-2{fill:#eaeaea;}.cls-3,.cls-4{fill:#fff;}.cls-3,.cls-5{stroke:#383c43;stroke-linejoin:round;stroke-width:7px;}.cls-3,.cls-5,.cls-8{stroke-linecap:round;}.cls-4{stroke:#000;}.cls-4,.cls-8,.cls-9{stroke-miterlimit:10;}.cls-4,.cls-9{stroke-width:10px;}.cls-5,.cls-9{fill:none;}.cls-6{fill:#3f488e;}.cls-7{fill:#383c43;}.cls-8{fill:#fffdfd;stroke:#fff;stroke-width:4px;}.cls-9{stroke:#88b0e6;mix-blend-mode:darken;}</style></defs><title>Asset 10</title><g class="cls-1"><g id="Layer_2" data-name="Layer 2"><g id="Layer_1-2" data-name="Layer 1"><circle class="cls-2" cx="159.3" cy="184.73" r="159.3"/><line class="cls-3" x1="79.01" y1="337.18" x2="265.01" y2="3.5"/><path class="cls-4" d="M236.57,312.21"/><path class="cls-3" d="M236.57,312.21a154.09,154.09,0,1,1,56.26-45.83"/><line class="cls-3" x1="34.87" y1="97.59" x2="305.08" y2="248.21"/><path class="cls-3" d="M94.71,307.34c35.9,20,75.68,24.51,109.88,15.46-13.58-32.1-39-61.19-73.84-80.62S58,216.49,23.69,221.73C33.93,255.68,58.71,287.27,94.71,307.34Z"/><path class="cls-3" d="M243.55,38.08c-35.9-20-75.68-24.51-109.88-15.46,13.58,32.1,39,61.19,73.84,80.62s72.71,25.69,107.06,20.46C304.34,89.74,279.56,58.15,243.55,38.08Z"/><path class="cls-5" d="M246.85,40.77s63.88,74.58,10,178.35S98.23,308,98.23,308"/><path class="cls-5" d="M243.07,39.22S145.89,25.11,87,126.13s9.72,181.55,9.72,181.55"/><polygon class="cls-6" points="254.59 264.46 326.51 305.69 304.48 312.39 317.89 338.25 307.36 345.91 287.24 326.76 273.83 344.96 254.59 264.46"/><path class="cls-7" d="M253.2,257a3.85,3.85,0,0,0-5.61,4.25l20.69,89.37a3.85,3.85,0,0,0,6.81,1.48l14.13-18.31,14.39,19a3.85,3.85,0,0,0,5.38.76l16.3-12.21a3.85,3.85,0,0,0,.79-5.39l0,0L311.7,317l21.64-8.86a3.85,3.85,0,0,0,.39-6.94Zm50.95,54.82a3.85,3.85,0,0,0-1.62,5.87l15.05,19.81-10.11,7.61-15.16-20a3.85,3.85,0,0,0-6.12,0L274,340.93,257,267.86,322.95,304Z"/><circle class="cls-8" cx="72.94" cy="218.25" r="32.56"/><circle class="cls-6" cx="72.94" cy="218.25" r="20.59"/><circle class="cls-8" cx="273.47" cy="174.79" r="37.95"/><circle class="cls-9" cx="273.47" cy="174.79" r="24"/><line class="cls-3" x1="94.75" y1="308.21" x2="245.37" y2="38"/></g></g></g></svg>