<svg xmlns="http://www.w3.org/2000/svg" viewBox="0 0 248.5 332.85"><defs><style>.cls-1{isolation:isolate;}.cls-2{fill:#eaeaea;}.cls-3{fill:#fff;}.cls-3,.cls-6{stroke:#383c43;stroke-linecap:round;stroke-linejoin:round;stroke-width:7px;}.cls-4{fill:#3f488e;}.cls-5{fill:#88b0e6;mix-blend-mode:darken;}.cls-6{fill:none;}</style></defs><title>Asset 11</title><g class="cls-1"><g id="Layer_2" data-name="Layer 2"><g id="Layer_1-2" data-name="Layer 1"><path class="cls-2" d="M225,171.5H201a6,6,0,0,0,6-6H23c0,3.3-2.3,6,1,6H5a5,5,0,0,0-5,5V327.85a5,5,0,0,0,5,5H225a5,5,0,0,0,5-5V176.5A5,5,0,0,0,225,171.5Z"/><rect class="cls-3" x="15" y="156.5" width="230" height="161.35" rx="5" ry="5"/><line class="cls-3" x1="14.92" y1="196.15" x2="73.09" y2="196.15"/><line class="cls-3" x1="15.2" y1="217.93" x2="56.99" y2="217.93"/><line class="cls-3" x1="241.61" y1="293.93" x2="162.04" y2="293.93"/><line class="cls-3" x1="241.92" y1="272.15" x2="178.88" y2="272.15"/><line class="cls-3" x1="241.61" y1="250.37" x2="196.32" y2="250.37"/><path class="cls-3" d="M130,3.5h0c-50.6,0-92,41.4-92,92v55a6,6,0,0,0,6,6H71.5a6,6,0,0,1-6-6V96.23a64.19,64.19,0,0,1,64-64h1a64.19,64.19,0,0,1,64,64V150.5a6,6,0,0,1-6,6H216a6,6,0,0,0,6-6v-55C222,44.9,180.6,3.5,130,3.5Z"/><polygon class="cls-4" points="129.42 193 130.17 270.54 115.42 271 122.42 232 109.42 213 115 196.15 129.42 193 129.42 193"/><polygon class="cls-5" points="129.17 193 129.42 270.54 144.17 271 137.17 232 150.17 213 144.59 196.15 130.17 193 129.17 193"/><path class="cls-6" d="M148.5,213A19.5,19.5,0,1,0,121,230.76l-5,39.81,28.14-.06-5.32-40.64A19.48,19.48,0,0,0,148.5,213Z"/></g></g></g></svg>