<svg xmlns="http://www.w3.org/2000/svg" viewBox="0 0 340.26 342.17"><defs><style>.cls-1{isolation:isolate;}.cls-2{fill:#eaeaea;}.cls-3,.cls-8{fill:#fff;}.cls-3,.cls-4,.cls-5,.cls-8{stroke:#292929;stroke-width:7px;}.cls-3,.cls-4,.cls-8{stroke-miterlimit:10;}.cls-4,.cls-5{fill:none;}.cls-4,.cls-5,.cls-8{stroke-linecap:round;}.cls-5{stroke-linejoin:round;}.cls-6{fill:#3167b5;}.cls-6,.cls-7{mix-blend-mode:darken;}.cls-7{fill:#88b0e6;}</style></defs><title>Asset 9</title><g class="cls-1"><g id="Layer_2" data-name="Layer 2"><g id="Layer_1-2" data-name="Layer 1"><circle class="cls-2" cx="166.33" cy="175.84" r="166.33"/><circle class="cls-3" cx="175.38" cy="164.88" r="161.37"/><line class="cls-4" x1="175" y1="53.83" x2="175" y2="78.83"/><line class="cls-4" x1="68" y1="165.83" x2="93" y2="165.83"/><line class="cls-4" x1="101.66" y1="86.99" x2="110.75" y2="96.08"/><line class="cls-4" x1="78.27" y1="124.07" x2="90.14" y2="128.99"/><line class="cls-4" x1="138.81" y1="63.57" x2="143.6" y2="75.5"/><line class="cls-4" x1="101.66" y1="241.58" x2="110.75" y2="232.49"/><line class="cls-4" x1="78.27" y1="204.49" x2="90.14" y2="199.57"/><line class="cls-4" x1="138.81" y1="264.99" x2="143.6" y2="253.07"/><line class="cls-4" x1="252.21" y1="242.58" x2="243.12" y2="233.49"/><line class="cls-4" x1="275.6" y1="205.49" x2="263.73" y2="200.57"/><line class="cls-4" x1="215.06" y1="265.99" x2="210.27" y2="254.07"/><line class="cls-4" x1="176" y1="275.83" x2="176" y2="250.83"/><polygon class="cls-5" points="276.28 78.19 262.14 64.04 153.25 139 201.33 187.08 276.28 78.19"/><path class="cls-5" d="M307.86,164.88A132.48,132.48,0,1,1,175.38,32.39"/><polygon class="cls-6" points="194.5 147.33 269.28 71.47 263.19 63.62 160.25 131 194.5 147.33"/><polygon class="cls-7" points="195.56 145.65 268.71 72.1 275.62 77.14 209.3 180.76 195.56 145.65"/><circle class="cls-8" cx="175.38" cy="164.88" r="34"/></g></g></g></svg>