<svg xmlns="http://www.w3.org/2000/svg" viewBox="0 0 342.53 275.58"><defs><style>.cls-1{fill:#eaeaea;}.cls-2{fill:#fff;}.cls-2,.cls-3,.cls-4{stroke:#383c43;stroke-linecap:round;stroke-linejoin:round;stroke-width:7px;}.cls-3{fill:#88b0e6;}.cls-4{fill:#3167b5;}</style></defs><title>Asset 12</title><g id="Layer_2" data-name="Layer 2"><g id="Layer_1-2" data-name="Layer 1"><polygon class="cls-1" points="106 246.5 156.34 130 106 12.5 165.46 12.5 215.79 130 165.46 246.5 106 246.5"/><polygon class="cls-1" points="0 246.5 50.34 130 0 12.5 59.46 12.5 109.79 130 59.46 246.5 0 246.5"/><polygon class="cls-2" points="19.27 237.5 69.6 121 19.27 3.5 78.72 3.5 129.06 121 78.72 237.5 19.27 237.5"/><polygon class="cls-2" points="126 237.5 176.34 121 126 3.5 185.46 3.5 235.79 121 185.46 237.5 126 237.5"/><path class="cls-3" d="M63.74,170h43.74a59.73,59.73,0,0,1,17.5,2.41,38.26,38.26,0,0,1,13.41,7,30.72,30.72,0,0,1,8.53,11.3,36.91,36.91,0,0,1,3,15.16v.29a36.41,36.41,0,0,1-3.28,15.89,32.54,32.54,0,0,1-9.11,11.52,39.48,39.48,0,0,1-13.92,7A63.18,63.18,0,0,1,106,242.92H92v29.16H63.74Zm41.7,50.74q7.58,0,11.88-3.59a12,12,0,0,0,4.3-9.75v-.29q0-6.6-4.3-10t-12-3.44H92v27.12Z"/><path class="cls-4" d="M157.64,250.79l38.2-29.16Q203,216.09,206,212a14.54,14.54,0,0,0,3-8.75,9.6,9.6,0,0,0-3.14-7.58,12,12,0,0,0-8.24-2.77,16.92,16.92,0,0,0-9.7,3.14,59.76,59.76,0,0,0-10.57,10l-19.1-15.89a87.94,87.94,0,0,1,8.31-9.33,45.24,45.24,0,0,1,9.11-6.85,42.38,42.38,0,0,1,10.79-4.23,55.89,55.89,0,0,1,13.34-1.46A46.18,46.18,0,0,1,215,170.67a36.62,36.62,0,0,1,11.88,6.63,29.49,29.49,0,0,1,7.73,10.28,31.35,31.35,0,0,1,2.77,13.2v.29A36,36,0,0,1,235.87,212a30.76,30.76,0,0,1-4.59,9,49.12,49.12,0,0,1-7.44,7.95q-4.37,3.79-10.06,7.87L196.28,249h42.14v23H157.64Z"/><path class="cls-3" d="M252.86,170H296.6a59.73,59.73,0,0,1,17.5,2.41,38.26,38.26,0,0,1,13.41,7,30.72,30.72,0,0,1,8.53,11.3,36.91,36.91,0,0,1,3,15.16v.29a36.41,36.41,0,0,1-3.28,15.89,32.54,32.54,0,0,1-9.11,11.52,39.48,39.48,0,0,1-13.92,7,63.18,63.18,0,0,1-17.57,2.33h-14v29.16H252.86Zm41.7,50.74q7.58,0,11.88-3.59a12,12,0,0,0,4.3-9.75v-.29q0-6.6-4.3-10t-12-3.44H281.14v27.12Z"/></g></g></svg>