<svg xmlns="http://www.w3.org/2000/svg" viewBox="0 0 291.5 355.1"><defs><style>.cls-1{fill:#eaeaea;}.cls-2{fill:#fff;}.cls-2,.cls-3{stroke:#383c43;stroke-linecap:round;stroke-linejoin:round;stroke-width:7px;}.cls-3{fill:#3f488e;}</style></defs><title>Asset 7</title><g id="Layer_2" data-name="Layer 2"><g id="Layer_1-2" data-name="Layer 1"><path class="cls-1" d="M134.5,17.5C42.5,17.5,0,41.81,0,41.81v179C0,296.36,133.85,355.36,134.5,355.1c.65.26,135.5-58.73,135.5-134.25v-179S226.5,17.5,134.5,17.5Z"/><path class="cls-2" d="M152.5,3.5C60.5,3.5,18,27.81,18,27.81v179c0,75.51,133.85,134.51,134.5,134.25.65.26,135.5-58.73,135.5-134.25v-179S244.5,3.5,152.5,3.5Z"/><line class="cls-2" x1="20.43" y1="56.37" x2="100" y2="56.37"/><line class="cls-2" x1="20.12" y1="78.15" x2="83.17" y2="78.15"/><line class="cls-2" x1="20.43" y1="99.93" x2="65.72" y2="99.93"/><line class="cls-2" x1="155" y1="3.5" x2="155" y2="42.5"/><line class="cls-2" x1="153" y1="271.5" x2="153" y2="340.5"/><path class="cls-3" d="M171.27,192.92q0-8.22-4.72-13.39t-16.19-9.64q-22.53-8.22-33.44-18.32T106,123.11q0-17,10.91-28t29.38-12.84V60.5h16.13v22q17.86,2.64,28.06,14.92t10,31.86l-.3.51H171.27q0-12-4.92-18.47a16,16,0,0,0-13.45-6.49q-8.73,0-13,5t-4.26,13.34q0,7.91,4.52,12.84t16.59,9.69q22.42,8.83,33.23,18.87t10.81,28.11q0,17.66-10.86,28.21t-29.53,12.48V253.5H144.28v-20q-19-1.93-31.35-13.44t-12-33.84l.2-.51h28.92q0,13.6,6.24,19.48t15.88,5.89q9.23,0,14.16-4.92T171.27,192.92Z"/></g></g></svg>