<svg xmlns="http://www.w3.org/2000/svg" viewBox="0 0 398.2 334.14"><defs><style>.cls-1{isolation:isolate;}.cls-2{fill:#eaeaea;}.cls-3{fill:#fff;}.cls-3,.cls-4{stroke:#292929;stroke-linecap:round;stroke-linejoin:round;stroke-width:7px;}.cls-4{fill:none;}.cls-5{fill:#292929;}.cls-6{fill:#3167b5;}.cls-6,.cls-7{mix-blend-mode:darken;}.cls-7{fill:#88b0e6;}</style></defs><title>Asset 8</title><g class="cls-1"><g id="Layer_2" data-name="Layer 2"><g id="Layer_1-2" data-name="Layer 1"><rect class="cls-2" y="17.32" width="357.6" height="247.87" rx="5" ry="5"/><rect class="cls-3" x="16.52" y="3.5" width="357.6" height="247.87" rx="5" ry="5"/><path class="cls-4" d="M274.69,299.13l-31-24.53V251.37h-93v23.24L115.9,299.13a6.65,6.65,0,0,0-1.29,3.66v10.75a3.67,3.67,0,0,0,3.66,3.66H273.62a3.67,3.67,0,0,0,3.66-3.66V302.79C277.28,300.78,274.69,299.13,274.69,299.13Z"/><line class="cls-4" x1="116.23" y1="299.13" x2="275.02" y2="299.13"/><line class="cls-4" x1="16.82" y1="204.89" x2="374.42" y2="204.89"/><rect class="cls-3" x="271.9" y="112.6" width="122.64" height="218.03" rx="5" ry="5"/><line class="cls-4" x1="274.63" y1="292.55" x2="394.7" y2="292.55"/><line class="cls-4" x1="274.63" y1="135.05" x2="394.7" y2="135.05"/><circle class="cls-5" cx="333.22" cy="311.33" r="8.7"/><line class="cls-4" x1="54.43" y1="31.5" x2="134" y2="31.5"/><line class="cls-4" x1="54.12" y1="53.28" x2="117.17" y2="53.28"/><line class="cls-4" x1="54.43" y1="75.06" x2="99.72" y2="75.06"/><polygon class="cls-4" points="101 107.64 177 180.63 290 54.63 267 36.63 176 137.63 123 85.64 101 107.64"/><polygon class="cls-6" points="177 179.63 177 137.63 123 86.64 101 108.64 177 179.63"/><polygon class="cls-7" points="176 179.63 176 137.63 267 36.63 290 54.63 176 179.63"/></g></g></g></svg>